<svg width="119" height="97" viewBox="0 0 119 97" fill="none" xmlns="http://www.w3.org/2000/svg">
<path fill-rule="evenodd" clip-rule="evenodd" d="M79.5997 28C70.8185 28.3455 62.7219 31.3552 56.0957 36.2433C55.9002 36.3943 55.7026 36.5427 55.503 36.6885C48.838 41.7864 43.726 48.8123 41 56.9332C49.7812 56.5878 57.8779 53.578 64.5041 48.6899C64.6995 48.5389 64.8971 48.3905 65.0967 48.2447C71.7617 43.1468 76.8737 36.121 79.5997 28Z" fill="#34393E"/>
<path d="M0 10C0 4.47715 4.47715 0 10 0V0C15.5228 0 20 4.47715 20 10V97H0V10Z" fill="#3586EB"/>
<path d="M99 65C99 59.4772 103.477 55 109 55V55C114.523 55 119 59.4772 119 65V97H99V65Z" fill="#3586EB"/>
</svg>
